<?xml version="1.0" standalone="no"?><!DOCTYPE svg PUBLIC "-//W3C//DTD SVG 1.1//EN" "http://www.w3.org/Graphics/SVG/1.1/DTD/svg11.dtd"><svg t="1645168639052" class="icon" viewBox="0 0 1024 1024" version="1.1" xmlns="http://www.w3.org/2000/svg" p-id="4278" xmlns:xlink="http://www.w3.org/1999/xlink" width="200" height="200"><defs><style type="text/css"></style></defs><path d="M512 520m-480 0a480 480 0 1 0 960 0 480 480 0 1 0-960 0Z" fill="#F8C5B9" p-id="4279"></path><path d="M512 1020c-276 0-500-224-500-500S236 20 512 20s500 224 500 500-224.8 500-500 500z m0-960C258.4 60 52 266.4 52 520s206.4 460 460 460 460-206.4 460-460S765.6 60 512 60z" p-id="4280"></path><path d="M277.6 276c5.6 0.8 9.6-4 8.8-9.6-8-46.4-43.2-227.2-100-237.6C132 18.4 12.8 137.6 32 189.6c20.8 56 200 80.8 245.6 86.4z" fill="#F8C5B9" p-id="4281"></path><path d="M278.4 296h-3.2c-88-10.4-238.4-37.6-261.6-99.2C-0.8 158.4 32 112 52.8 87.2 89.6 44 148 1.6 189.6 9.6c33.6 6.4 81.6 56 116 254.4 1.6 8.8-0.8 17.6-7.2 24-5.6 4.8-12.8 8-20 8zM178.4 48c-20 0-60.8 24.8-95.2 64.8-28 32.8-36.8 59.2-32.8 69.6 9.6 27.2 96 56 212.8 71.2-24-129.6-59.2-201.6-81.6-205.6h-3.2z" p-id="4282"></path><path d="M751.2 276c-5.6 0.8-9.6-4-8.8-9.6 8-46.4 43.2-227.2 100-237.6 54.4-10.4 172.8 108.8 153.6 160.8-20.8 56-199.2 80.8-244.8 86.4z" fill="#F8C5B9" p-id="4283"></path><path d="M750.4 296c-8 0-15.2-3.2-20-8.8-6.4-6.4-8.8-15.2-7.2-24C757.6 64.8 804.8 16 838.4 9.6c41.6-8 100 35.2 136.8 77.6 20.8 24.8 53.6 71.2 40 109.6-23.2 61.6-173.6 88.8-261.6 99.2h-3.2z m99.2-248h-4c-22.4 4-56.8 76-81.6 205.6 116-15.2 202.4-44 212.8-71.2 4-10.4-4.8-36.8-32.8-69.6-33.6-40-74.4-64.8-94.4-64.8zM509.6 859.2c-82.4 0-128.8-58.4-130.4-61.6L361.6 776h284l-12 20.8c-1.6 2.4-37.6 61.6-122.4 62.4h-1.6z m-84.8-56c18.4 13.6 47.2 28.8 84.8 28.8h1.6c38.4-0.8 64-15.2 80-28.8H424.8z" p-id="4284"></path><path d="M354.4 789.6c-12.8 0-21.6-12.8-16.8-24.8 15.2-37.6 59.2-104.8 175.2-103.2 113.6 1.6 158.4 65.6 174.4 102.4 5.6 12-3.2 25.6-16.8 25.6H354.4z" fill="#EF866D" p-id="4285"></path><path d="M669.6 803.2H354.4c-10.4 0-20.8-5.6-26.4-14.4-5.6-8.8-7.2-20-3.2-29.6 17.6-41.6 64-111.2 184-111.2h4c121.6 1.6 168.8 69.6 186.4 110.4 4 9.6 3.2 21.6-2.4 30.4-6.4 8.8-16 14.4-27.2 14.4z m-160.8-128c-104 0-144 59.2-158.4 94.4-0.8 1.6 0 3.2 0.8 4 0.8 0.8 1.6 2.4 4 2.4h315.2c2.4 0 3.2-1.6 4-2.4 0.8-0.8 1.6-2.4 0-4.8-15.2-34.4-56-92.8-161.6-94.4-1.6 0.8-3.2 0.8-4 0.8z" p-id="4286"></path><path d="M368 674.4c-3.2 0-6.4-0.8-9.6-3.2-5.6-4.8-6.4-13.6-0.8-19.2 36.8-40 88.8-60.8 155.2-59.2 64 0.8 115.2 20.8 152 58.4 5.6 5.6 4.8 14.4 0 19.2-5.6 5.6-14.4 4.8-19.2 0-31.2-32-76-48.8-132.8-49.6-57.6-0.8-103.2 16-134.4 50.4-3.2 1.6-7.2 3.2-10.4 3.2z" p-id="4287"></path><path d="M368 618.4c-3.2 0-6.4-0.8-9.6-3.2-5.6-4.8-6.4-13.6-0.8-19.2 36.8-40 88.8-60.8 155.2-59.2 64 0.8 115.2 20.8 152 58.4 5.6 5.6 4.8 14.4 0 19.2-5.6 5.6-14.4 4.8-19.2 0-31.2-32-76-48.8-132.8-49.6-57.6-0.8-103.2 16-134.4 50.4-3.2 1.6-7.2 3.2-10.4 3.2z" p-id="4288"></path><path d="M456 734.4m-24 0a24 24 0 1 0 48 0 24 24 0 1 0-48 0Z" p-id="4289"></path><path d="M568 734.4m-24 0a24 24 0 1 0 48 0 24 24 0 1 0-48 0Z" p-id="4290"></path><path d="M133.6 655.2a87.2 40 0 1 0 174.4 0 87.2 40 0 1 0-174.4 0Z" fill="#EF866D" p-id="4291"></path><path d="M709.6 655.2a87.2 40 0 1 0 174.4 0 87.2 40 0 1 0-174.4 0Z" fill="#EF866D" p-id="4292"></path><path d="M284 478.4a72 48 90 1 0 96 0 72 48 90 1 0-96 0Z" p-id="4293"></path><path d="M644 478.4a72 48 90 1 0 96 0 72 48 90 1 0-96 0Z" p-id="4294"></path><path d="M353.6 473.6m-8 0a8 8 0 1 0 16 0 8 8 0 1 0-16 0Z" fill="#FFFFFF" p-id="4295"></path><path d="M329.6 465.6m-8 0a8 8 0 1 0 16 0 8 8 0 1 0-16 0Z" fill="#FFFFFF" p-id="4296"></path><path d="M705.6 473.6m-8 0a8 8 0 1 0 16 0 8 8 0 1 0-16 0Z" fill="#FFFFFF" p-id="4297"></path><path d="M681.6 465.6m-8 0a8 8 0 1 0 16 0 8 8 0 1 0-16 0Z" fill="#FFFFFF" p-id="4298"></path></svg>