<?xml version="1.0" standalone="no"?><!DOCTYPE svg PUBLIC "-//W3C//DTD SVG 1.1//EN" "http://www.w3.org/Graphics/SVG/1.1/DTD/svg11.dtd"><svg t="1645168519970" class="icon" viewBox="0 0 1024 1024" version="1.1" xmlns="http://www.w3.org/2000/svg" p-id="1870" xmlns:xlink="http://www.w3.org/1999/xlink" width="200" height="200"><defs><style type="text/css"></style></defs><path d="M60.75392 324.64896c7.49568 3.6608 40.20224 7.19872 43.904-9.81504 3.72224-17.05472-35.17952-15.47776-43.02848-11.12064-1.74592-9.15968-4.8896-25.0112 36.18816-34.45248-33.62816-9.27744-59.74016 18.31424-45.34784 44.91776-12.2112 31.83104-6.53824 67.15904 59.31008 75.008 13.952-10.46528 19.61984-33.14176 19.61984-33.14176s-84.08064 11.776-70.64576-31.39584z m19.59424-17.44384c8.00768 0 14.49984 2.29376 14.49984 5.12512 0 2.82624-6.49216 5.12-14.49984 5.12-8.00256 0-14.49984-2.29888-14.49984-5.12 0-2.83136 6.49728-5.12512 14.49984-5.12512z" fill="#E8DE31" p-id="1871"></path><path d="M729.14944 235.24864s69.20704-7.55712 119.20896 19.18976c50.00192 26.752 80.2304 51.16928 105.82016 0 3.49184 32.5632 14.53568 83.73248-112.512 87.2192-127.04768 3.48672-112.51712-106.40896-112.51712-106.40896z" fill="#D0B816" p-id="1872"></path><path d="M75.00288 524.82048c-5.79072-183.07072 218.05568-359.3472 413.42464-359.3472s240.72192 69.77536 240.72192 69.77536 99.43552 20.93568 130.83136 97.68448c31.39584 76.75392 36.6336 90.71104 73.2672 99.4304 20.93568-3.49184 45.35296 1.7408 48.8448 33.14176 3.48672 31.40096-19.18976 40.12032-24.4224 41.43104-5.23264 1.3056 12.6464 14.3872 10.46528 35.32288 0 0-12.2112-13.52192-19.62496-11.77088-7.41376 1.7408-69.34528 139.9808-261.22752 185.33888 0 0 35.7632 68.89984 74.13248 79.37024 12.2112 1.7408 16.32768 6.528 18.00192 10.05568 5.55008 11.74528-6.2208 17.84832-11.88864 20.46464-5.66784 2.62144-12.79488-3.40992-20.06016 0-7.2704 3.42016-26.1632 0.44032-39.24992-7.84384-13.0816-8.28416-13.95712-48.8448-81.11616-83.73248 0 0-32.27136 8.72448-54.94272 6.97856 0 0-7.41376 72.7808 4.35712 86.3488 16.57344 19.0976-3.05152 24.4224-24.832 18.97984-26.65472-6.66624-30.11584-1.10592-30.11584-23.3472 0-37.50912-0.87552-37.504-0.87552-37.504v-40.99072s-102.04672 13.0816-179.67104-47.96928c0 0-6.97344 57.56416 44.48256 100.3008 9.58976 5.22752 38.3744 14.82752 20.06016 25.28768-18.31936 10.4704-30.53056 0-30.53056 0s-20.06016 21.8112-35.75808 2.62144l-15.69792-19.18976s-12.2112-67.15904-61.05088-68.89984c-9.59488 6.97344-8.71936 33.14176-0.87552 54.94784 7.84896 21.80096 44.48256 36.62848 33.14688 44.48256s-22.67648 6.97344-34.88768-2.62144c-12.2112-9.58976-48.83968 27.03872-49.71008-46.21824 0-12.2112-11.3408-20.06528-30.53056-44.48256s-100.3008-80.24576-104.66816-218.04544z" fill="#CC1A1C" p-id="1873"></path><path d="M953.12896 466.36544m-13.23008 0a13.23008 13.23008 0 1 0 26.46016 0 13.23008 13.23008 0 1 0-26.46016 0Z" fill="#D0B816" p-id="1874"></path><path d="M641.74592 307.20512s-60.63616 42.74176-81.7408 99.36896c-21.0944 56.6272-28.04224 97.45408-84.56704 74.5984 20.16256 28.47744 47.40608 77.1584 151.3984-9.61536s14.90944-164.352 14.90944-164.352z" fill="#D0B816" p-id="1875"></path><path d="M915.75296 482.82624m-13.23008 0a13.23008 13.23008 0 1 0 26.46016 0 13.23008 13.23008 0 1 0-26.46016 0Z" fill="#D0B816" p-id="1876"></path><path d="M751.3088 444.36992s26.5984-43.17184 45.78816-46.22848c19.18976-3.05152 51.0208 18.31424 61.4912 18.75456 0 0-13.95712 5.66784-26.5984-1.7408l-12.65152-7.41376s-20.50048-10.46528-32.71168 1.74592c-12.19584 12.20608-3.04128 33.57696-35.31776 34.88256z" fill="#D0B816" p-id="1877"></path><path d="M801.46432 421.10976m-9.30816 0a9.30816 9.30816 0 1 0 18.61632 0 9.30816 9.30816 0 1 0-18.61632 0Z" fill="#D0B816" p-id="1878"></path><path d="M842.01984 436.66944s-18.31424 19.91168-51.89632 27.76064-86.34368 13.08672-86.34368 13.08672 72.82176 9.15456 105.09824-8.28928c32.27136-17.44384 33.14176-32.55808 33.14176-32.55808z" fill="#D0B816" p-id="1879"></path><path d="M407.31648 553.30816s11.33568 91.7248-144.78336 183.4496c-0.00512 0 164.54656-47.3856 144.78336-183.4496zM572.1088 741.01248s34.88256-25.28768 36.62848-69.77536c0.00512 0 12.8512 43.61728-36.62848 69.77536z" fill="#921D27" p-id="1880"></path></svg>